<svg enable-background="new 0 0 67 28" viewBox="0 0 67 28" xmlns="http://www.w3.org/2000/svg"><path d="m3.59 0s-3.59 5.428-3.59 14c0 8.578 3.59 14 3.59 14h31.418v-28h-31.418z" fill="#ec2227"/><path d="m20.693 23.307h-3.777l-3.337-10.91c-.098-.344-.364-1.341-.509-2.219l-.099 13.129h-3.922l.584-18.63h5.018l3.654 12.006c.217.755.437 1.756.437 2.412h.123c0-.656.219-1.657.437-2.412l3.653-12.007h5.018l.585 18.63h-3.921l-.1-13.129c-.145.877-.411 1.875-.51 2.219z" fill="#fff"/><path d="m39.007 0h28v28h-28z" fill="#f99d1c"/><path d="m44.848 14.841c0-3.156.912-5.681 2.736-7.573s4.34-2.838 7.547-2.838c1.511 0 3.105.263 4.786.789l-.968 3.029c-1.477-.577-2.851-.866-4.123-.866-1.901 0-3.445.632-4.633 1.896s-1.782 3.05-1.782 5.358c0 1.29.183 2.414.547 3.373.365.959.861 1.697 1.489 2.215s1.315.899 2.063 1.146c.746.246 1.553.368 2.418.368 1.34 0 2.749-.237 4.226-.712l.891 2.036c-1.68 1.069-3.733 1.604-6.16 1.604-1.188 0-2.3-.183-3.334-.547-1.036-.365-1.99-.925-2.864-1.681-.874-.755-1.565-1.781-2.074-3.08-.51-1.297-.765-2.803-.765-4.517z" fill="#fff"/><path d="m1.091 27.958c-.062.032-.192.064-.356.064-.379 0-.664-.24-.664-.685 0-.423.286-.707.704-.707.166 0 .274.036.32.06l-.044.143c-.064-.032-.158-.057-.27-.057-.316 0-.526.202-.526.556 0 .332.19.542.516.542.108 0 .216-.021.286-.056z" fill="none"/></svg>