<svg enable-background="new 0 0 67 28" viewBox="0 0 67 28" xmlns="http://www.w3.org/2000/svg"><path d="m3.59 0s-3.59 5.428-3.59 14c0 8.578 3.59 14 3.59 14h31.418v-28h-31.418z" fill="#ec2227"/><path d="m20.693 23.307h-3.777l-3.337-10.91c-.098-.344-.364-1.341-.509-2.219l-.099 13.129h-3.922l.584-18.63h5.018l3.654 12.006c.217.755.437 1.756.437 2.412h.123c0-.656.219-1.657.437-2.412l3.653-12.007h5.018l.585 18.63h-3.921l-.1-13.129c-.145.877-.411 1.875-.51 2.219z" fill="#fff"/><path d="m39.007 0h28v28h-28z" fill="#ee3d96"/><path d="m45.626 24.284 5.854-19.472h4.607l5.981 19.473h-3.665l-1.299-4.582h-6.542l-1.323 4.582h-3.613zm5.676-7.255h5.065l-2.138-7.509c-.119-.407-.229-1.018-.331-1.832h-.076c-.102.849-.229 1.527-.382 2.036z" fill="#fff"/><path d="m.37 27.576-.14.424h-.18l.46-1.348h.208l.459 1.348h-.186l-.144-.424zm.443-.136-.133-.387-.07-.246h-.005l-.068.244-.132.39h.408z" fill="none"/></svg>